<?xml version="1.0" encoding="UTF-8"?>
<!DOCTYPE svg PUBLIC "-//W3C//DTD SVG 1.1//EN" "http://www.w3.org/Graphics/SVG/1.1/DTD/svg11.dtd">
<!-- Creator: CorelDRAW 2018 (64-Bit Evaluation Version) -->
<svg xmlns="http://www.w3.org/2000/svg" xml:space="preserve" width="80px" height="35px" version="1.1" style="shape-rendering:geometricPrecision; text-rendering:geometricPrecision; image-rendering:optimizeQuality; fill-rule:evenodd; clip-rule:evenodd"
viewBox="0 0 80 35"
 xmlns:xlink="http://www.w3.org/1999/xlink">
 <defs>
  <style type="text/css">
   <![CDATA[
    .fil0 {fill:none}
    .fil2 {fill:#A9ABAE}
    .fil1 {fill:#E6E7E8;fill-rule:nonzero}
    .fil3 {fill:#606062;fill-rule:nonzero}
   ]]>
  </style>
 </defs>
 <g id="Layer_x0020_1">
  <metadata id="CorelCorpID_0Corel-Layer"/>
  <rect class="fil0" width="80" height="35"/>
  <path class="fil1" d="M14.77 6.46c2.99,0 5.7,1.24 7.65,3.24 0.9,0.92 1.64,1.99 2.18,3.19l-1.35 0c-0.45,-0.87 -1.02,-1.66 -1.69,-2.34 -1.74,-1.78 -4.14,-2.88 -6.79,-2.88 -2.65,0 -5.06,1.1 -6.79,2.88 -1.74,1.77 -2.82,4.23 -2.82,6.95 0,2.72 1.08,5.18 2.82,6.95 1.73,1.78 4.14,2.87 6.79,2.87 2.65,0 5.05,-1.09 6.79,-2.87 0.45,-0.46 0.86,-0.97 1.21,-1.51l1.42 0c-0.49,0.87 -1.08,1.66 -1.77,2.36 -1.95,2 -4.66,3.24 -7.65,3.24 -2.99,0 -5.7,-1.24 -7.66,-3.24 -1.95,-1.99 -3.17,-4.76 -3.17,-7.8 0,-3.04 1.22,-5.81 3.17,-7.8 1.96,-2 4.67,-3.24 7.66,-3.24z"/>
  <path class="fil2" d="M10.03 17.65c0.09,-0.2 0.19,-0.52 0.4,-0.61l-0.4 0.61zm2.89 2.42l0.1 0.03c0.03,0.24 0.06,0.4 0.32,0.39 0.05,-0.16 -0.06,-0.53 0.02,-0.79 0.09,-0.29 0.24,-0.29 0.37,-0.5 0,-0.22 -0.04,-0.42 -0.18,-0.53 -0.15,0.25 -0.28,0.54 -0.49,0.73 -0.41,0.4 -0.66,0.19 -0.69,0.5 0.22,0.13 0.32,0.08 0.62,0.06 0,0.08 0.02,0.06 -0.06,0.06 -0.56,0.04 -0.73,1.12 -1.38,1.3 -0.19,-0.13 -0.3,-0.29 -0.63,-0.43 -0.26,-0.11 -0.6,-0.12 -0.62,0.17 0.27,-0.09 0.35,-0.1 0.54,0.04 0.11,0.08 0.3,0.19 0.32,0.36 -0.56,0.05 -1.14,-0.09 -1.19,0.58 0.23,-0.1 0.28,-0.22 0.52,-0.31 0.2,-0.07 0.46,-0.09 0.59,0.05 -0.06,0.04 -1.01,0.34 -0.76,0.94 0.01,-0.01 0.02,-0.02 0.02,-0.03 0.43,-0.57 1.06,-1.04 1.83,-0.65 0.15,0.08 0.44,0.24 0.51,0.37 0.02,-0.41 -0.51,-0.7 -0.81,-0.83 0.14,-0.55 0.92,-1.02 1.05,-1.51zm5.73 -2.94l0.05 -0.01c0.13,0.16 0.3,0.49 0.4,0.69 0.86,1.68 1.24,1.74 1.32,1.87l0.3 0.13c-0.05,-0.15 -0.27,-0.48 -0.36,-0.59 -0.11,-0.2 -0.27,-0.39 -0.4,-0.59 -0.4,-0.66 -0.8,-1.34 -0.72,-2.22 0.1,0.18 0.03,1.56 1.27,2.24l0.28 0.08c-0.14,-0.12 -0.22,-0.22 -0.3,-0.39 -0.19,-0.07 -0.79,-1.49 -0.81,-1.59 0.2,0.19 0.51,0.9 0.85,1.16 0.1,0.08 0.07,-0.01 0.09,0.1 0.23,0.12 0.41,0.25 0.71,0.31 -0.14,-0.29 -0.4,-0.46 -0.51,-0.75 -0.16,-0.11 -0.99,-1.43 -0.68,-2.16 0.03,0.14 -0.01,0.42 0.03,0.64 0.15,0.82 0.87,1.06 0.98,1.18l0.24 0.07c-0.07,-0.19 -0.15,-0.19 -0.29,-0.37 -0.12,-0.15 -0.04,-0.02 -0.12,-0.19 -0.11,-0.02 -0.18,-0.22 -0.23,-0.33 -0.08,-0.15 -0.12,-0.24 -0.17,-0.4 -0.22,-0.64 -0.35,-0.57 -0.38,-0.8 0.13,0.05 0.06,-0.01 0.18,0.15 0.43,0.61 0.23,0.54 0.89,1.09 0.17,0.06 0.36,0.15 0.55,0.19 -0.02,-0.14 -0.19,-0.28 -0.29,-0.4 -0.14,-0.16 -0.27,-0.27 -0.34,-0.48 -0.09,-0.02 -0.16,-0.19 -0.21,-0.27 -0.2,-0.38 -0.37,-0.74 -0.36,-1.2 0.09,0.11 0.07,0.2 0.17,0.37 0.08,0.14 0.15,0.2 0.24,0.29 0.24,0.25 0.31,0.22 0.6,0.4l0.29 0.11c-0.1,-0.27 -0.33,-0.33 -0.45,-0.54 -0.57,-0.69 -0.32,-0.93 -0.73,-1.15l-0.03 0.04c-0.06,0.08 -0.05,0.16 -0.07,0.11 0,-0.01 -0.01,0.02 -0.02,0.04 0,-0.19 -0.03,-0.17 0.07,-0.3 0.07,0.05 0.18,0.13 0.26,0.18 0.1,0.08 0.12,0.13 0.23,0.22 0.21,0.16 0.34,0.26 0.6,0.34 0.21,0.04 0.38,0.07 0.58,0 -0.06,-0.16 -0.13,-0.17 -0.22,-0.23 -0.14,-0.09 -0.21,-0.14 -0.31,-0.23 -0.19,-0.12 -0.47,-0.5 -0.52,-0.68 -0.31,-0.32 -0.72,-1.96 -1.82,-1.77 -0.11,0.02 -0.16,0.04 -0.24,0.09 -0.1,0.06 -0.08,0.03 -0.17,0.12 -0.08,0.09 -0.14,0.2 -0.18,0.37 -0.03,0.17 -0.02,0.32 0.05,0.46 0.09,0.17 0.21,0.11 0.35,0.23 0.5,-0.09 0.79,-0.06 0.77,-0.66 0.12,0.04 0,-0.09 0.12,0.09 0.34,0.47 -0.32,1.67 -0.64,1.87 -0.06,0.19 -0.16,0.23 -0.27,0.36 -0.05,0.06 -0.12,0.12 -0.16,0.17 -0.08,0.14 -0.04,0.26 -0.08,0.18 0,-0.01 0,0.02 -0.01,0.03 -0.04,-1.31 -1.17,-1.3 -1.39,-0.79 -0.04,0.1 -0.09,0.24 -0.09,0.41 0,0.14 0.01,0.26 0.09,0.38 0.19,-0.08 0.17,-0.13 0.29,-0.29 0.4,-0.53 0.72,0.13 0.54,0.49 -0.38,0.81 -1.41,0.92 -1.51,0.96 -0.12,0.05 0,-0.02 -0.2,0.27 0.04,-0.3 0.23,-0.27 0.07,-0.85 -0.29,-0.09 -0.42,-0.09 -0.76,-0.03 0.07,0.08 0,0.02 0.1,0.08 0.01,0.01 0.43,0.12 0.26,0.56 -0.03,0.08 -0.12,0.19 -0.25,0.24 -0.11,0.04 -0.28,0.03 -0.41,0 -0.18,0.62 0.08,2.21 0.56,2.4 0.07,-0.25 0.02,-0.54 0.04,-0.83l0.2 0.62c0.08,0.23 0.28,0.69 0.49,0.79 0.26,-0.37 0.04,-0.79 0.06,-1.2l0.03 -0.04c0.01,0.24 0.12,0.48 0.19,0.71 0.15,0.49 0.76,1.44 1.19,1.5 -0.23,-0.78 -1.09,-1.8 -0.85,-2.78 0.14,0.35 -0.13,0.83 0.61,1.96 0.11,0.16 0.22,0.34 0.38,0.45l-0.68 -2.03c-0.12,-0.27 -0.29,-0.42 -0.23,-0.55 0.02,0.02 0.03,0.02 0.06,0.07 0.26,0.37 0.62,1.92 1.27,2.73 0.14,0.19 0.45,0.53 0.84,0.53 -0.06,-0.11 -0.63,-0.74 -1.02,-1.57 -0.19,-0.4 -0.52,-1.6 -0.41,-2 0.03,-0.12 -0.01,-0.02 0.05,-0.1 -0.05,0.34 0.01,0.75 0.08,1.07 0.16,0.75 0.77,1.93 1.49,1.93 -0.13,-0.23 -0.35,-0.18 -0.83,-1.28 -0.22,-0.52 -0.38,-1.04 -0.64,-1.48zm-5.67 -5.08l-0.1 -0.03c-0.18,-0.01 -0.1,0.02 -0.16,0.07 0.04,0.04 -0.02,0.03 0.1,0.07 0.02,0.01 0.1,0 0.12,0l0.04 -0.11 0.09 0.11c0.02,0.05 0.03,0.09 0.06,0.14 0.08,0.13 0.11,0.13 0.15,0.28 -0.31,-0.08 -0.03,-0.27 -0.38,-0.36 -0.27,-0.07 -0.35,-0.07 -0.33,-0.38 0.24,0 0.32,0.02 0.41,0.21zm0.26 5.07l0.13 0c-0.01,0.15 0,0.15 0.03,0.31 0.02,0.08 0.01,0.02 0.03,0.13l0.14 0.57c0.07,0.3 0.16,0.59 0.22,0.91 0.06,0.36 0.03,0.74 0.1,1.09 0.12,0.6 0.29,0.47 0.5,0.61 -0.32,0.1 -0.48,0.18 -0.43,0.59 0.14,0.27 1.27,0.41 1.08,-0.27 -0.04,-0.16 -0.2,-0.22 -0.32,-0.31 0.26,-0.19 0.38,-0.15 0.45,-0.62 0.07,-0.39 0,-0.71 0.03,-0.89 0.01,-0.09 0.01,-0.06 0.03,-0.1 -0.05,-0.28 0.37,-1.71 0.43,-2.16 0.07,-0.61 0.1,-1.18 -0.34,-1.59 -0.16,-0.14 -0.23,-0.12 -0.51,-0.12l0 -0.05c0.25,-0.02 0.4,-0.09 0.43,-0.34l-0.34 -0.14c-0.44,-0.05 -0.95,-0.08 -1.12,0.25 0.13,0.14 0.23,0.23 0.49,0.24l-0.06 0.03c-0.24,0.02 -0.23,-0.03 -0.4,0.11 -0.39,0.33 -0.35,0.62 -0.52,1.08l-0.02 -0.21c-0.35,0.03 -0.64,0.02 -0.68,-0.33 -0.04,-0.35 0.23,-0.36 0.31,-0.58 -0.88,-0.13 -0.83,0.24 -0.62,0.84 -0.22,-0.2 -0.02,-0.18 -0.41,-0.27 -0.28,-0.07 -0.57,-0.18 -0.77,-0.3 -0.14,-0.08 -0.36,-0.29 -0.43,-0.42 -0.11,-0.2 -0.14,-0.46 -0.12,-0.7 0.18,-0.15 0.27,-0.25 0.47,-0.06 0.12,0.11 0.23,0.3 0.37,0.38 0.31,-0.39 0.03,-1.12 -0.54,-1.1 -0.53,0.01 -0.79,0.47 -0.84,0.97 -0.01,0 -0.02,-0.01 -0.03,-0.02 -0.36,-0.31 -0.67,-0.74 -0.91,-1.14 -0.23,-0.36 -0.57,-1.2 0,-1.52 -0.3,1.01 1.1,0.94 1.12,0.26 0.01,-0.67 -0.87,-1.04 -1.41,-0.57 -0.46,0.4 -0.66,0.86 -0.98,1.44 -0.08,0.14 -0.13,0.25 -0.22,0.38 -0.12,0.18 -0.15,0.21 -0.28,0.34 -0.3,0.31 -0.59,0.35 -0.61,0.6 1.13,0.04 0.94,-0.39 1.52,-0.63 -0.22,0.42 -0.52,0.96 -0.84,1.34 -0.1,0.11 -0.27,0.22 -0.3,0.35 0.69,-0.21 1.44,-0.73 1.31,-1.52 0,-0.01 -0.04,-0.16 -0.04,-0.16 0,-0.18 -0.05,-0.04 0.06,-0.12 0.07,0.29 0.07,0.67 0,0.95 -0.03,0.14 -0.07,0.29 -0.12,0.42 -0.2,0.51 -1,1.36 -1.05,1.61 0.94,-0.22 1.24,-1.2 1.48,-1.27 -0.07,0.31 -0.31,0.85 -0.48,1.12 0,0.01 -0.02,0.04 -0.03,0.05l-0.56 0.72c0.33,-0.08 0.63,-0.29 0.83,-0.48 0.15,-0.15 0.19,-0.2 0.29,-0.41 0.08,-0.14 0.1,-0.35 0.17,-0.49 0.08,0.99 -0.92,1.78 -1.21,2.41 0.44,-0.03 0.81,-0.44 1.03,-0.7 0.18,-0.22 0.56,-0.94 0.71,-1.04 -0.03,0.15 -0.44,0.96 -0.54,1.16 -0.2,0.42 -0.61,0.94 -0.61,1.02 0.67,-0.33 1.22,-0.88 1.37,-1.62 0.04,-0.17 0.01,-0.82 0.07,-0.89 0.15,0.53 -0.22,1.6 -0.46,2.03 -0.15,0.26 -0.97,1.43 -0.98,1.53 0.32,-0.09 0.84,-0.61 1,-0.86l0.69 -1.2c0,1.24 -0.99,1.74 -1.06,2.19 0.32,-0.21 0.46,-0.26 0.71,-0.49 0.91,-0.85 0.76,-1.99 0.86,-2.55 0.25,0.28 -0.28,1.85 -0.38,2.09l-0.47 0.84c-0.09,0.13 -0.17,0.24 -0.27,0.38 -0.09,0.13 -0.17,0.21 -0.26,0.37 0.24,-0.07 0.46,-0.21 0.61,-0.38 0.07,-0.07 0.09,-0.08 0.15,-0.14 0.65,-0.6 0.86,-2.06 1.25,-2.55 -0.14,0.69 -0.65,1.67 -0.78,2.32 0.43,-0.36 0.88,-1.17 0.94,-1.79 0.02,-0.23 -0.06,-0.71 -0.01,-0.82 0.1,0.11 0.09,0.27 0.1,0.41 0,0.14 -0.02,0.29 -0.03,0.42 -0.1,0.75 -0.66,1.38 -0.77,2.06 0.37,-0.12 0.75,-0.66 0.95,-1.02 0.34,-0.63 0.26,-1.02 0.42,-1.45 0.08,0.17 -0.21,1.09 0,1.55 0.5,-0.17 0.45,-1.01 0.72,-1.37 0.06,0.24 -0.06,0.58 0.05,0.79 0.13,-0.04 0.18,-0.14 0.24,-0.29 0.15,-0.37 0.28,-0.81 0.27,-1.21zm3.01 -4.95l-0.03 -0.15 -0.15 -0.03c0.07,-0.1 0.19,-0.15 0.36,-0.13 0.03,0.23 0.01,0.27 -0.18,0.31zm-0.22 -0.15l0.01 0.15 0.21 0 -0.15 0.06c-0.18,0.06 -0.11,0.06 -0.2,0.2 0,0.01 -0.01,0.02 -0.02,0.03l0.07 -0.34c0.04,-0.07 0.06,-0.07 0.08,-0.1zm-0.39 7.8c0.08,0.17 0.05,0.46 0.06,0.67 0.28,0.02 0.18,-0.24 0.34,-0.42 0.34,0.49 0.2,0.28 0.59,0.71 0.12,0.14 0.48,0.57 0.48,0.83 -0.38,0.19 -0.68,0.3 -0.75,0.75 0.19,-0.1 0.15,-0.15 0.28,-0.24 0.08,-0.06 0.19,-0.1 0.31,-0.14 0.12,-0.03 0.26,-0.04 0.4,-0.04 0.13,0.01 0.27,0.01 0.37,0.09 0.42,-0.04 0.77,0.37 0.97,0.67 0.05,-0.06 0.08,0.11 0.04,-0.18 -0.02,-0.16 -0.14,-0.34 -0.25,-0.44 -0.18,-0.17 -0.42,-0.21 -0.54,-0.34 0.18,-0.1 0.43,-0.07 0.62,0 0.22,0.08 0.27,0.21 0.48,0.3 0,-0.33 -0.11,-0.44 -0.39,-0.51 -0.26,-0.07 -0.48,-0.06 -0.77,-0.1 0.04,-0.18 0.18,-0.28 0.36,-0.36 0.27,-0.12 0.29,-0.03 0.52,-0.01 -0.04,-0.29 -0.44,-0.35 -0.7,-0.18 -0.2,0.13 -0.45,0.4 -0.67,0.44 -0.33,-0.05 -0.73,-1.04 -1.12,-1.25l-0.2 -0.09c0,-0.01 -0.02,-0.01 -0.03,-0.01 0.16,-0.01 0.26,0.03 0.41,0 0.26,-0.03 0.25,-0.17 0.25,-0.18 -0.35,-0.12 -0.55,-0.2 -0.8,-0.41 -0.19,-0.17 -0.36,-0.58 -0.52,-0.71 -0.07,0.14 -0.09,0.31 -0.09,0.53 0.17,0.24 0.26,0.22 0.35,0.62zm-3.27 -7.21c-0.01,-0.11 -0.03,-0.11 0.04,-0.19 0,0.01 0.05,0 0.03,0.11 -0.05,0.18 -0.06,0.07 -0.07,0.08 0,0.25 0.11,0.2 0.23,0.36 0.1,0.14 0.09,0.25 0.1,0.46 1.24,0.15 0.88,0.62 1.23,1.31l0.49 -0.12c0.02,-0.52 -0.31,-1.56 -0.61,-2.05 -0.1,-0.17 -0.31,-0.36 -0.36,-0.48 0.2,-0.11 0.45,-0.06 0.36,-0.34 -0.26,-0.11 -0.02,0.25 -0.85,-0.21 -0.49,-0.27 -0.5,0.13 -0.65,0.26l0.04 -0.32c-0.13,-0.09 -0.43,-0.23 -0.65,-0.27 -0.45,-0.07 -0.45,0.01 -0.68,0.17 0.16,0.19 1.19,0.15 1.09,0.78 -0.02,0.09 -0.01,0.04 -0.04,0.09 -0.1,-0.16 -0.23,-0.42 -0.5,-0.36 0.36,0.39 0.51,0.72 0.8,0.72zm4.04 -1.17c-0.27,-0.04 -0.44,0.14 -0.61,0.24 -0.31,0.19 -0.31,0.13 -0.6,0.06 -0.07,0.28 0.18,0.22 0.38,0.35 -0.12,0.2 -0.23,0.19 -0.38,0.51 -0.21,0.46 -0.57,1.32 -0.61,1.87l0.02 0.17 0.29 0.06 0.19 0.03c0.3,-0.59 0.13,-1.26 1.21,-1.28 0.06,-0.38 0.1,-0.38 0.28,-0.7 0.13,-0.22 0,-0.06 0.21,-0.16 0.15,-0.08 0.56,-0.54 0.65,-0.75 -0.36,0.09 -0.33,0.33 -0.57,0.44 0.01,-0.69 0.61,-0.66 1.13,-0.89 -0.09,-0.23 -0.54,-0.24 -0.83,-0.14 -0.73,0.24 -0.47,0.31 -0.47,0.55 -0.15,-0.21 -0.03,-0.26 -0.29,-0.36zm-2.24 10.15c0.01,2.57 -1.61,2.67 -1.94,2.16 -0.11,-0.17 0,-0.31 0.06,-0.44 -0.3,0.02 -0.52,0.16 -0.65,0.31 -0.11,0.26 0.15,0.61 0.46,0.74 0.35,0.15 0.69,0.11 1.05,0.03 -0.07,0.35 -0.35,0.41 -0.05,0.85 0.46,-0.02 0.6,-0.36 0.82,-0.45 0.01,0.03 0,-0.04 0.03,0.1 0,0.05 0,0.07 0,0.11 0.07,1.29 0.77,1.17 0.98,0.56 0.08,-0.23 0.08,-0.54 0.07,-0.79 0.2,0.05 0.46,0.5 0.86,0.45 0.26,-0.29 0.01,-0.58 -0.08,-0.88 0.24,0.08 0.48,0.17 0.79,0.11 0.83,-0.16 1.16,-1.01 0.04,-1.18 0.07,0.18 0.45,0.53 -0.19,0.68 -1.24,0.3 -1.66,-1.34 -1.59,-2.35l-0.66 -0.01zm5.25 -5.24c-0.21,-0.05 -0.1,0.02 -0.11,-0.13 0.15,0.1 0.05,-0.01 0.11,0.13zm-0.02 -4.23c0,-0.39 0.44,-0.27 0.63,-0.11 -0.17,-0.03 -0.27,-0.09 -0.47,-0.08 -0.08,0.06 -0.11,0.12 -0.16,0.19zm-10.51 3.24c-0.02,-0.01 -0.02,0 -0.06,-0.07 -0.09,-0.11 0.04,0.14 -0.04,-0.07 0.16,0.08 0.08,-0.06 0.1,0.14zm1.2 -0.31c-0.17,-0.11 -0.04,-0.02 -0.06,-0.11l0.06 0.11zm-0.46 -2.96c-0.09,-0.14 0,-0.08 -0.11,-0.14 -0.07,-0.04 -0.12,-0.04 -0.2,-0.06 0.2,0.01 0.32,-0.03 0.35,0.25l-0.04 -0.05z"/>
  <path class="fil3" d="M33.01 21.16l0 1.32 -2.41 0 -0.01 -0.92c-0.84,0.81 -1.84,1.21 -3.02,1.21 -1.2,0 -2.23,-0.42 -3.08,-1.27 -0.85,-0.86 -1.28,-1.89 -1.28,-3.09 0,-1.21 0.43,-2.23 1.28,-3.08 0.85,-0.86 1.88,-1.28 3.08,-1.28 1.18,0 2.18,0.41 3.02,1.21l0 -5.19 2.42 0 0 1.32 -1.09 0 0 5.97 0.01 0 0 3.81 1.08 -0.01zm-5.44 -5.78c-0.83,0 -1.55,0.3 -2.14,0.89 -0.6,0.59 -0.89,1.3 -0.89,2.14 0,0.83 0.29,1.55 0.89,2.14 0.59,0.6 1.31,0.89 2.14,0.89 0.84,0 1.55,-0.29 2.14,-0.89 0.6,-0.59 0.89,-1.31 0.89,-2.14 0,-0.84 -0.29,-1.55 -0.89,-2.14 -0.59,-0.59 -1.3,-0.89 -2.14,-0.89z"/>
  <polygon id="1" class="fil3" points="33.88,14.35 33.88,16.63 35.21,16.63 35.21,15.69 38.82,15.69 33.88,20.99 33.88,22.48 40.48,22.48 40.48,20.26 39.15,20.26 39.15,21.16 35.55,21.16 40.48,15.86 40.48,14.35 "/>
  <path id="2" class="fil3" d="M45.45 15.35c-0.83,0 -1.55,0.3 -2.14,0.89 -0.6,0.59 -0.89,1.31 -0.89,2.15 0,0.83 0.29,1.54 0.89,2.14 0.59,0.59 1.31,0.89 2.14,0.89 0.84,0 1.55,-0.3 2.14,-0.89 0.6,-0.6 0.89,-1.31 0.89,-2.14 0,-0.84 -0.29,-1.56 -0.89,-2.15 -0.59,-0.59 -1.3,-0.89 -2.14,-0.89zm0 7.4c-1.2,0 -2.23,-0.43 -3.08,-1.28 -0.85,-0.86 -1.28,-1.89 -1.28,-3.08 0,-1.21 0.43,-2.24 1.28,-3.09 0.85,-0.85 1.88,-1.28 3.08,-1.28 1.21,0 2.23,0.43 3.08,1.28 0.85,0.85 1.28,1.88 1.28,3.09 0,1.19 -0.43,2.22 -1.28,3.08 -0.85,0.85 -1.87,1.28 -3.08,1.28z"/>
  <path id="3" class="fil3" d="M58.88 21.16l0.85 0 0 1.32 -3.9 0 0 -1.32 1.73 0 0 -3.52c0,-0.63 -0.23,-1.17 -0.68,-1.61 -0.44,-0.45 -0.98,-0.67 -1.61,-0.67 -0.63,0 -1.17,0.22 -1.61,0.67 -0.45,0.44 -0.67,0.98 -0.67,1.61l0 4.84 -2.3 0 0 -1.32 0.97 0 0 -5.47 -0.97 0 0 -1.34 2.3 0 0 0.49c0.64,-0.54 1.4,-0.82 2.28,-0.82 1,0 1.85,0.36 2.56,1.07 0.7,0.71 1.05,1.56 1.05,2.55l0 3.52z"/>
  <path id="4" class="fil3" d="M63.01 14.35l-2.41 0 0 1.34 1.08 0 0 5.47 -1.08 0 0 1.32 3.48 0 0 -1.32 -1.07 0 0 -6.81zm-0.16 -0.97c-0.18,0.17 -0.38,0.26 -0.62,0.26 -0.25,0 -0.45,-0.09 -0.62,-0.26 -0.17,-0.17 -0.26,-0.38 -0.26,-0.62 0,-0.24 0.09,-0.44 0.26,-0.61 0.17,-0.18 0.37,-0.27 0.62,-0.27 0.24,0 0.44,0.09 0.62,0.27 0.17,0.17 0.25,0.37 0.25,0.61 0,0.24 -0.08,0.45 -0.25,0.62z"/>
  <path id="5" class="fil3" d="M64.96 21.16l0 1.32 6.13 0c0.93,0 1.73,-0.33 2.39,-0.99 0.67,-0.67 1,-1.46 1,-2.4 0,-0.93 -0.33,-1.74 -1,-2.4 -0.21,-0.22 -0.44,-0.39 -0.68,-0.53 0.05,-0.06 0.11,-0.11 0.16,-0.16 0.68,-0.68 1.02,-1.5 1.02,-2.47 0,-0.96 -0.34,-1.78 -1.02,-2.46 -0.68,-0.68 -1.5,-1.02 -2.46,-1.02l-5.54 0 0 1.33 1.07 0 0 9.78 -1.07 0zm2.4 -4.14l2.13 0 0 0.01 1.6 0c0.57,0 1.05,0.2 1.45,0.6 0.4,0.41 0.6,0.89 0.6,1.46 0,0.57 -0.2,1.05 -0.6,1.45 -0.4,0.41 -0.88,0.62 -1.45,0.62l-3.73 0 0 -4.14zm3.14 -5.64c0.59,0 1.1,0.22 1.52,0.63 0.42,0.42 0.63,0.93 0.63,1.52 0,0.6 -0.21,1.11 -0.63,1.53 -0.42,0.42 -0.93,0.63 -1.52,0.63l-3.14 0 0 -4.31 3.14 0z"/>
 </g>
</svg>
